<?xml version="1.0" encoding="UTF-8" standalone="no"?>
<svg
   xmlns:dc="http://purl.org/dc/elements/1.1/"
   xmlns:cc="http://creativecommons.org/ns#"
   xmlns:rdf="http://www.w3.org/1999/02/22-rdf-syntax-ns#"
   xmlns:svg="http://www.w3.org/2000/svg"
   xmlns="http://www.w3.org/2000/svg"
   xmlns:sodipodi="http://sodipodi.sourceforge.net/DTD/sodipodi-0.dtd"
   xmlns:inkscape="http://www.inkscape.org/namespaces/inkscape"
   version="1.0"
   width="1088.04pt"
   height="1088.04pt"
   viewBox="0 0 1088.04 1088.04"
   preserveAspectRatio="xMidYMid meet"
   id="svg22"
   sodipodi:docname="square-logo.svg"
   inkscape:version="0.92.5 (2060ec1f9f, 2020-04-08)">
  <metadata
     id="metadata28">
    <rdf:RDF>
      <cc:Work
         rdf:about="">
        <dc:format>image/svg+xml</dc:format>
        <dc:type
           rdf:resource="http://purl.org/dc/dcmitype/StillImage" />
        <dc:title></dc:title>
      </cc:Work>
    </rdf:RDF>
  </metadata>
  <defs
     id="defs26" />
  <sodipodi:namedview
     pagecolor="#ffffff"
     bordercolor="#666666"
     borderopacity="1"
     objecttolerance="10"
     gridtolerance="10"
     guidetolerance="10"
     inkscape:pageopacity="0"
     inkscape:pageshadow="2"
     inkscape:window-width="1366"
     inkscape:window-height="746"
     id="namedview24"
     showgrid="false"
     inkscape:zoom="0.32777778"
     inkscape:cx="756.24697"
     inkscape:cy="699.46247"
     inkscape:window-x="1360"
     inkscape:window-y="0"
     inkscape:window-maximized="1"
     inkscape:current-layer="svg22" />
  <g
     transform="matrix(0.12899325,0,0,-0.12899325,-181.22587,1272.1077)"
     id="g20"
     style="fill:#333333;fill-opacity:1;stroke:none">
    <path
       d="M 7320,8261 C 7038,8169 6684,7633 6303,6720 6071,6166 5923,5712 5819,5240 l -34,-154 -180,-181 c -178,-180 -254,-243 -274,-230 -34,20 7,225 80,407 47,115 61,166 49,173 -5,3 11,47 36,99 57,117 67,187 33,230 -30,38 -77,56 -146,56 -121,-1 -190,-58 -337,-279 -125,-188 -202,-291 -358,-478 -127,-152 -189,-211 -254,-243 -82,-40 -108,-21 -108,78 0,51 8,88 33,155 18,48 35,86 37,84 2,-2 -1,-18 -7,-36 -6,-18 -9,-34 -7,-36 6,-7 160,377 159,399 0,28 107,236 122,236 19,0 114,169 115,203 0,4 6,21 12,38 11,26 10,34 -7,57 -10,15 -43,39 -73,55 -61,31 -147,37 -204,13 -79,-33 -159,-135 -235,-301 -22,-47 -60,-111 -84,-143 -56,-72 -57,-74 -107,-217 -54,-157 -108,-376 -122,-497 -18,-164 22,-330 92,-380 34,-24 119,-45 128,-32 10,14 78,33 100,28 54,-15 315,223 500,456 133,167 222,274 222,266 0,-3 -12,-36 -26,-73 -89,-235 -84,-394 15,-493 79,-79 172,-98 292,-60 99,30 182,91 329,241 l 135,138 -13,-127 c -18,-172 -13,-339 11,-375 10,-15 22,-25 27,-22 6,4 10,0 10,-8 0,-8 14,-42 31,-76 37,-73 97,-124 175,-147 46,-13 56,-13 88,0 45,19 68,56 107,176 18,52 46,129 65,170 18,41 35,87 38,103 4,15 12,27 19,27 24,0 64,54 130,172 110,198 428,601 459,582 4,-3 44,7 88,22 79,26 81,27 101,8 19,-17 21,-27 17,-107 -4,-86 -6,-93 -67,-211 -35,-67 -64,-135 -64,-150 -4,-55 -293,-383 -412,-466 -98,-68 -122,-104 -104,-157 17,-51 92,-129 145,-149 63,-24 129,-15 222,31 103,51 261,208 400,397 99,134 229,288 285,338 16,14 48,35 70,48 23,12 61,44 84,70 l 42,47 -21,-55 c -12,-32 -22,-90 -25,-140 -9,-152 47,-302 158,-424 160,-175 389,-228 575,-133 69,35 251,166 302,217 23,23 42,50 42,59 1,9 24,41 52,71 27,30 47,49 43,41 -5,-9 -3,-12 6,-9 23,7 165,195 234,309 36,58 71,112 79,118 15,13 95,29 261,55 244,37 340,102 276,185 l -19,24 -59,-16 c -32,-9 -135,-32 -227,-51 -166,-33 -168,-33 -163,-12 3,11 20,77 40,146 73,263 91,465 49,571 -12,30 -35,68 -52,84 -16,15 -27,32 -25,36 8,13 -147,139 -210,171 -40,21 -80,32 -122,36 -57,4 -70,1 -130,-28 -124,-61 -268,-235 -326,-394 -36,-98 -48,-113 -101,-126 -183,-46 -384,-228 -495,-447 -36,-72 -73,-104 -281,-245 l -135,-91 -5,114 c -3,63 -10,125 -17,139 -6,14 -16,53 -22,87 -22,120 -69,189 -156,229 -93,44 -183,24 -323,-69 -85,-56 -271,-237 -403,-392 -98,-115 -189,-232 -171,-221 21,13 13,-2 -47,-92 -32,-48 -69,-107 -82,-132 -16,-31 -24,-40 -27,-28 -4,22 48,337 89,528 17,80 41,205 54,277 49,270 63,295 203,368 41,21 80,48 88,60 8,12 44,48 81,80 38,33 62,52 54,42 -26,-33 8,-17 66,31 79,66 288,285 373,391 99,123 385,604 473,796 41,88 52,122 53,170 4,104 4,101 13,87 5,-9 10,12 14,55 3,37 11,115 17,172 27,260 -47,491 -184,575 -42,26 -58,30 -134,33 -48,1 -98,-1 -112,-6 z m 207,-217 c 13,-14 31,-50 40,-82 26,-82 25,-372 -1,-492 -20,-95 -106,-367 -142,-448 -22,-49 -208,-302 -388,-527 -44,-55 -134,-156 -200,-224 -132,-134 -352,-325 -366,-316 -4,3 -11,-1 -13,-7 -4,-9 -5,-8 -5,2 0,8 6,31 14,50 l 14,35 -5,-35 c -3,-19 28,64 69,185 111,330 365,992 461,1200 20,44 39,91 41,104 11,55 233,453 234,418 0,-4 -8,-20 -17,-35 -9,-15 30,22 87,82 58,60 107,113 108,118 6,14 45,-2 69,-28 z m -434,-68 c -148,-162 -392,-548 -595,-941 -53,-104 -98,-185 -98,-180 0,6 58,127 129,270 198,399 357,648 530,828 98,101 120,116 34,23 z M 6381,6793 c -12,-20 -14,-14 -5,12 4,9 9,14 11,11 3,-2 0,-13 -6,-23 z m 2639,-691 c 40,-40 54,-100 46,-202 -10,-153 -92,-495 -146,-617 -30,-67 -35,-73 -68,-79 -47,-9 -192,11 -232,31 -17,9 -40,30 -51,48 -18,28 -20,44 -16,137 6,123 29,204 93,332 24,48 44,98 44,110 0,28 86,144 145,196 87,77 140,89 185,44 z m -564,-861 c 30,-28 83,-64 117,-80 61,-29 203,-71 240,-71 16,0 14,-10 -24,-77 -176,-323 -394,-534 -607,-588 -184,-47 -227,79 -127,375 53,157 191,463 250,556 l 37,57 29,-60 c 19,-40 49,-79 85,-112 z m -3028,107 c -11,-29 -35,-93 -52,-143 -30,-88 -31,-89 -34,-48 -2,22 4,58 13,80 19,45 84,163 90,163 3,0 -5,-24 -17,-52 z m 1668,-338 c -85,-210 -292,-506 -423,-606 -30,-23 -20,-6 48,76 154,187 288,380 342,491 29,59 53,105 55,104 2,-2 -8,-31 -22,-65 z m -716,-113 c 0,-2 -10,-12 -22,-23 l -23,-19 19,23 c 18,21 26,27 26,19 z"
       id="path2"
       style="fill:#333333;fill-opacity:1"
       inkscape:connector-curvature="0" />
    <path
       d="m 2655,7635 c -34,-18 -57,-44 -49,-56 3,-5 -17,-62 -45,-126 -120,-283 -209,-529 -444,-1229 -196,-581 -256,-775 -292,-944 -15,-69 -54,-208 -87,-310 -103,-318 -198,-691 -198,-780 0,-69 27,-159 64,-215 44,-67 116,-138 162,-160 71,-34 105,8 123,151 15,120 130,600 197,825 26,89 94,389 94,416 0,17 26,-20 54,-76 19,-37 41,-73 49,-80 10,-8 14,-23 11,-44 -4,-25 5,-50 38,-108 85,-151 344,-543 386,-583 38,-37 57,-66 32,-51 -20,12 -9,-22 21,-71 53,-83 112,-155 210,-254 52,-53 117,-121 144,-151 28,-30 65,-62 83,-70 18,-8 35,-21 37,-29 10,-27 236,-193 299,-219 205,-86 462,39 669,327 89,124 117,179 117,235 0,53 -13,87 -34,87 -7,0 -34,-27 -60,-59 -70,-87 -181,-161 -281,-187 -61,-16 -133,-2 -240,46 -38,18 -80,32 -93,32 -16,0 -88,64 -243,214 -121,118 -243,233 -271,256 -42,36 -427,494 -508,605 -13,18 -27,30 -31,28 -6,-4 -163,227 -175,259 -3,8 25,29 78,57 218,117 487,316 625,462 76,81 254,250 451,429 61,56 119,121 160,180 35,50 99,130 142,177 112,123 242,280 290,351 119,176 125,365 17,537 -36,57 -92,103 -127,103 -26,0 -30,-5 -40,-42 -23,-93 -64,-191 -115,-276 -100,-170 -323,-454 -525,-670 -184,-196 -629,-635 -735,-723 -164,-138 -270,-219 -273,-210 -2,5 24,80 58,166 37,94 69,196 80,254 11,59 43,160 83,261 35,91 83,219 107,285 23,66 73,198 111,294 38,95 71,196 75,225 7,64 17,91 71,185 66,117 58,170 -35,230 -45,29 -144,61 -187,61 -11,0 -33,-7 -50,-15 z M 2017,5508 c -3,-8 -6,-5 -6,6 -1,11 2,17 5,13 3,-3 4,-12 1,-19 z m -42,-178 c -64,-278 -85,-353 -142,-522 -31,-92 -59,-166 -61,-164 -2,2 4,32 13,67 30,119 219,779 222,775 2,-2 -13,-72 -32,-156 z m 640,-340 c 22,-30 34,-51 27,-47 -13,9 -72,92 -72,103 0,4 1,5 3,3 2,-2 21,-29 42,-59 z m 236,-307 c 13,-16 12,-17 -3,-4 -17,13 -22,21 -14,21 2,0 10,-8 17,-17 z"
       id="path4"
       style="fill:#333333;fill-opacity:1"
       inkscape:connector-curvature="0" />
    <path
       d="m 6859,3870 c -45,-13 -79,-42 -107,-89 -25,-42 -27,-54 -27,-156 0,-102 2,-113 28,-158 67,-114 242,-124 314,-17 32,46 43,93 43,185 0,86 -26,161 -68,198 -43,39 -124,55 -183,37 z m 120,-65 c 47,-24 66,-77 66,-180 0,-137 -40,-195 -133,-195 -75,0 -120,58 -129,168 -7,86 10,147 52,189 27,27 41,33 74,33 23,0 55,-7 70,-15 z"
       id="path6"
       style="fill:#333333;fill-opacity:1"
       inkscape:connector-curvature="0" />
    <path
       d="m 7358,3871 c -48,-16 -86,-50 -109,-99 -20,-39 -24,-63 -24,-142 0,-109 24,-173 79,-214 78,-59 216,-55 280,9 12,13 16,37 16,106 v 89 h -91 c -88,0 -90,-1 -87,-22 3,-20 10,-23 61,-26 l 57,-3 v -53 c 0,-67 -13,-79 -94,-84 -59,-4 -65,-2 -98,26 -41,37 -58,86 -58,173 0,128 41,189 125,189 59,0 91,-16 110,-56 13,-28 22,-34 47,-34 28,0 30,2 23,27 -9,39 -42,81 -77,99 -36,19 -123,27 -160,15 z"
       id="path8"
       style="fill:#333333;fill-opacity:1"
       inkscape:connector-curvature="0" />
    <path
       d="m 7855,3869 c -42,-16 -84,-57 -106,-104 -14,-30 -19,-64 -19,-136 0,-83 3,-102 26,-147 37,-74 95,-107 184,-106 71,1 141,28 160,63 5,11 10,56 10,100 v 81 h -90 c -89,0 -90,0 -90,-25 0,-24 3,-25 55,-25 h 55 v -54 c 0,-70 -19,-86 -103,-86 -53,0 -62,3 -92,33 -38,38 -55,89 -55,167 0,75 17,128 50,162 24,24 37,28 82,28 61,0 90,-16 108,-60 10,-24 19,-30 41,-30 22,0 29,5 29,19 0,27 -41,82 -77,104 -39,22 -127,31 -168,16 z"
       id="path10"
       style="fill:#333333;fill-opacity:1"
       inkscape:connector-curvature="0" />
    <path
       d="m 5870,3625 v -245 h 108 c 167,1 222,37 222,146 0,39 -5,51 -34,80 l -35,35 24,23 c 62,62 37,163 -48,195 -16,6 -75,11 -133,11 h -104 z m 208,184 c 60,-21 62,-106 2,-136 -14,-8 -51,-12 -85,-11 l -60,3 -3,64 c -2,35 -1,70 2,77 7,17 99,19 144,3 z m 22,-214 c 56,-29 50,-121 -10,-152 -15,-8 -52,-12 -90,-11 l -65,3 -3,88 -3,87 h 71 c 44,0 82,-6 100,-15 z"
       id="path12"
       style="fill:#333333;fill-opacity:1"
       inkscape:connector-curvature="0" />
    <path
       d="m 6330,3625 v -245 h 150 150 v 25 24 l -117,3 -118,3 -3,218 -2,217 h -30 -30 z"
       id="path14"
       style="fill:#333333;fill-opacity:1"
       inkscape:connector-curvature="0" />
    <path
       d="m 8240,3625 v -245 h 160 160 v 25 25 h -125 -125 v 90 90 h 105 105 v 25 25 h -105 -105 v 80 80 h 120 120 v 25 25 h -155 -155 z"
       id="path16"
       style="fill:#333333;fill-opacity:1"
       inkscape:connector-curvature="0" />
    <path
       d="m 8670,3625 v -245 h 30 30 v 100 100 h 60 59 l 53,-100 c 52,-99 53,-100 90,-100 h 37 l -57,103 -58,102 43,41 c 40,38 43,44 43,93 0,115 -53,150 -222,151 h -108 z m 240,170 c 25,-23 34,-72 21,-108 -15,-38 -67,-59 -139,-55 l -57,3 -3,79 c -2,44 0,86 3,94 8,22 148,12 175,-13 z"
       id="path18"
       style="fill:#333333;fill-opacity:1"
       inkscape:connector-curvature="0" />
  </g>
</svg>
